<svg width="45" height="35" viewBox="0 0 45 35" fill="none" xmlns="http://www.w3.org/2000/svg">
<path d="M43.1575 0H1.82835C0.949115 0 0.23877 0.710345 0.23877 1.58958V9.5375H44.7471V1.58958C44.7471 0.710345 44.0368 0 43.1575 0ZM0.23877 33.3812C0.23877 34.2605 0.949115 34.9708 1.82835 34.9708H43.1575C44.0368 34.9708 44.7471 34.2605 44.7471 33.3812V13.9089H0.23877V33.3812ZM29.0003 24.2411C29.0003 24.0226 29.1791 23.8437 29.3977 23.8437H37.594C37.8125 23.8437 37.9914 24.0226 37.9914 24.2411V27.8177C37.9914 28.0363 37.8125 28.2151 37.594 28.2151H29.3977C29.1791 28.2151 29.0003 28.0363 29.0003 27.8177V24.2411Z" fill="white"/>
</svg>
