<svg width="25" height="25" viewBox="0 0 25 25" fill="none" xmlns="http://www.w3.org/2000/svg">
<path fill-rule="evenodd" clip-rule="evenodd" d="M0.284668 10.8887C0.284668 5.89346 0.284668 3.39517 1.83716 1.844C3.38833 0.291504 5.88662 0.291504 10.8819 0.291504H13.5312C18.5265 0.291504 21.0248 0.291504 22.5759 1.844C24.1284 3.39517 24.1284 5.89346 24.1284 10.8887V13.538C24.1284 18.5333 24.1284 21.0316 22.5759 22.5828C21.0248 24.1353 18.5265 24.1353 13.5312 24.1353H10.8819C5.88662 24.1353 3.38833 24.1353 1.83716 22.5828C0.284668 21.0316 0.284668 18.5333 0.284668 13.538V10.8887ZM20.1545 6.25244C20.1545 6.77942 19.9451 7.28482 19.5725 7.65745C19.1999 8.03008 18.6945 8.23942 18.1675 8.23942C17.6405 8.23942 17.1351 8.03008 16.7625 7.65745C16.3898 7.28482 16.1805 6.77942 16.1805 6.25244C16.1805 5.72546 16.3898 5.22007 16.7625 4.84743C17.1351 4.4748 17.6405 4.26546 18.1675 4.26546C18.6945 4.26546 19.1999 4.4748 19.5725 4.84743C19.9451 5.22007 20.1545 5.72546 20.1545 6.25244ZM14.8558 13.538C14.8558 14.2407 14.5767 14.9145 14.0799 15.4114C13.583 15.9082 12.9092 16.1873 12.2065 16.1873C11.5039 16.1873 10.83 15.9082 10.3332 15.4114C9.83636 14.9145 9.55724 14.2407 9.55724 13.538C9.55724 12.8354 9.83636 12.1615 10.3332 11.6647C10.83 11.1678 11.5039 10.8887 12.2065 10.8887C12.9092 10.8887 13.583 11.1678 14.0799 11.6647C14.5767 12.1615 14.8558 12.8354 14.8558 13.538ZM17.5052 13.538C17.5052 14.9433 16.9469 16.291 15.9532 17.2847C14.9595 18.2784 13.6118 18.8366 12.2065 18.8366C10.8013 18.8366 9.45354 18.2784 8.45986 17.2847C7.46618 16.291 6.90793 14.9433 6.90793 13.538C6.90793 12.1328 7.46618 10.785 8.45986 9.79135C9.45354 8.79767 10.8013 8.23942 12.2065 8.23942C13.6118 8.23942 14.9595 8.79767 15.9532 9.79135C16.9469 10.785 17.5052 12.1328 17.5052 13.538Z" fill="white"/>
</svg>
