<svg width="13" height="23" viewBox="0 0 13 23" fill="none" xmlns="http://www.w3.org/2000/svg">
<path d="M0.620139 1.08331C0.437604 1.26547 0.292788 1.48184 0.19398 1.72004C0.0951716 1.95824 0.0443115 2.21358 0.0443115 2.47146C0.0443115 2.72934 0.0951716 2.98469 0.19398 3.22289C0.292788 3.46109 0.437604 3.67746 0.620139 3.85962L8.25992 11.4994L0.620139 19.1392C0.251977 19.5074 0.0451453 20.0067 0.0451453 20.5273C0.0451453 21.048 0.251977 21.5473 0.620139 21.9155C0.988301 22.2837 1.48764 22.4905 2.0083 22.4905C2.52896 22.4905 3.02829 22.2837 3.39645 21.9155L12.4342 12.8777C12.6168 12.6956 12.7616 12.4792 12.8604 12.241C12.9592 12.0028 13.0101 11.7474 13.0101 11.4896C13.0101 11.2317 12.9592 10.9763 12.8604 10.7381C12.7616 10.4999 12.6168 10.2836 12.4342 10.1014L3.39645 1.06362C2.64823 0.315389 1.38806 0.315389 0.620139 1.08331Z" fill="#5A0E0E"/>
</svg>
