<svg width="56" height="35" viewBox="0 0 56 35" fill="none" xmlns="http://www.w3.org/2000/svg">
<path d="M2.71051 5.60802e-05C1.27994 5.60802e-05 0.119385 1.15999 0.119385 2.59118V32.3798C0.119385 33.8107 1.2801 34.9708 2.71051 34.9708H53.2143C54.6448 34.9708 55.8054 33.8109 55.8054 32.3797V2.59112C55.8054 1.16016 54.6447 0 53.2143 0H2.71045L2.71051 5.60802e-05ZM18.3791 4.20958C21.5578 4.20958 24.477 5.31545 26.7686 7.16266C24.8406 8.88776 23.4026 11.1542 22.6931 13.7232H23.8051C24.4599 11.6039 25.6496 9.71703 27.2176 8.22069C28.7856 9.71703 29.9751 11.6039 30.6301 13.7232H31.7595C31.0401 11.1678 29.6001 8.91482 27.6735 7.20097C29.9694 5.33031 32.9002 4.20952 36.0925 4.20952C43.4593 4.20952 49.431 10.182 49.431 17.5498C49.431 24.9177 43.4593 30.8901 36.0925 30.8901C32.8471 30.8901 29.8713 29.7317 27.5586 27.8047C29.6274 26.005 31.1525 23.5922 31.85 20.8475H30.7623C30.143 23.1512 28.8965 25.2002 27.2175 26.8024C25.5386 25.2002 24.2938 23.1512 23.6745 20.8475H22.6391C23.3406 23.5525 24.8458 25.9314 26.8834 27.7143C24.575 29.6174 21.6108 30.7613 18.3791 30.7613C11.0124 30.7613 5.04063 24.8176 5.04063 17.4854C5.04063 10.1533 11.0124 4.20958 18.3791 4.20958ZM35.0919 13.5874C33.4892 13.5874 31.93 14.9886 31.93 17.6194C31.93 19.364 32.7722 20.5151 34.4289 20.5151C34.8973 20.5153 35.6436 20.3237 35.6436 20.3237L35.8906 18.7993C35.8906 18.7993 35.2096 19.1438 34.7421 19.1438C33.7573 19.1438 33.3622 18.3864 33.3622 17.5725C33.3622 15.9212 34.2095 15.0126 35.1528 15.0126C35.8602 15.0126 36.4284 15.4129 36.4284 15.4129L36.6546 13.9302C36.6546 13.9302 35.8136 13.5874 35.0919 13.5874ZM48.5662 13.7162L47.1723 13.7197L46.873 15.5539C46.873 15.5539 46.349 14.8421 45.5296 14.8421C44.2555 14.8421 43.1942 16.3556 43.1942 18.0963C43.1942 19.2198 43.759 20.3219 44.917 20.3219C45.75 20.3219 46.2117 19.7495 46.2117 19.7495L46.1508 20.2384H47.5047L48.5662 13.7162ZM8.64279 13.7353L7.53258 20.2732H8.87077L9.71652 15.3433L9.84182 20.2732H10.7989L12.5844 15.3433L11.7926 20.2732H13.2143L14.3106 13.7353H12.111L10.7415 17.7464L10.6701 13.7354H8.64284L8.64279 13.7353ZM22.6235 14.1599C22.5932 14.1903 21.8143 18.682 21.8143 19.2291C21.8143 20.0391 22.2683 20.4009 22.9071 20.395C23.3649 20.3911 23.7194 20.2761 23.8834 20.228C23.9005 20.2234 23.9338 20.2141 23.9338 20.2141L24.1061 19.0447C24.0124 19.0447 23.8745 19.0847 23.7528 19.0847C23.2759 19.0847 23.223 18.8309 23.2534 18.6427L23.638 16.2569H24.3637L24.5394 14.9639H23.8555L23.9947 14.1599H22.6235ZM38.7985 14.8178C37.8645 14.8178 37.1488 15.1258 37.1488 15.1258L36.9504 16.3265C36.9504 16.3265 37.5415 16.0811 38.4348 16.0811C38.942 16.0811 39.3136 16.1391 39.3136 16.5614C39.3136 16.8179 39.2683 16.9129 39.2683 16.9129C39.2683 16.9129 38.8673 16.8781 38.6819 16.8781C37.504 16.8781 36.2665 17.3943 36.2665 18.9472C36.2665 20.1707 37.0789 20.4507 37.5821 20.4507C38.5431 20.4507 38.9576 19.8123 38.9795 19.8103L38.9342 20.3429H40.1332L40.6692 16.5005C40.6694 14.8702 39.2808 14.8177 38.7985 14.8177V14.8178ZM16.3066 14.8247C15.3692 14.8247 14.6499 15.1327 14.6499 15.1327L14.4516 16.3335C14.4516 16.3335 15.0446 16.0881 15.9412 16.0881C16.4502 16.0881 16.8234 16.1463 16.8234 16.5684C16.8234 16.8247 16.7782 16.9199 16.7782 16.9199C16.7782 16.9199 16.376 16.8851 16.19 16.8851C15.0076 16.8851 13.766 17.4005 13.766 18.9524C13.766 20.1753 14.58 20.456 15.085 20.456C16.0495 20.456 16.4654 19.8175 16.4876 19.8156L16.4423 20.348H17.6465L18.1842 16.5075C18.1842 14.8781 16.7906 14.8247 16.3066 14.8247V14.8247ZM20.5596 14.8247C19.5529 14.8247 18.5306 15.2311 18.5306 16.6189C18.5306 18.1913 20.2342 18.0324 20.2342 18.6948C20.2342 19.137 19.7588 19.1735 19.392 19.1735C18.7571 19.1735 18.1863 18.9541 18.1842 18.9646L18.0015 20.1653C18.0344 20.1755 18.3879 20.3341 19.5294 20.3341C19.8359 20.3341 21.588 20.412 21.588 18.587C21.588 16.8808 19.9662 17.219 19.9662 16.5335C19.9662 16.1923 20.2295 16.0846 20.7127 16.0846C20.9046 16.0846 21.6438 16.1455 21.6438 16.1455L21.8143 14.9326C21.8143 14.9327 21.3373 14.8247 20.5596 14.8247ZM26.8521 14.8247C25.4533 14.825 24.4176 16.3292 24.4176 18.0284C24.4176 19.9896 25.7152 20.456 26.8208 20.456C27.8413 20.456 28.2912 20.228 28.2912 20.228L28.5349 18.8898C28.5349 18.8898 27.7586 19.2309 27.0575 19.2309C25.5636 19.2309 25.8254 18.1189 25.8254 18.1189H28.6532C28.6532 18.1189 28.836 17.2202 28.836 16.8537C28.836 15.9394 28.3796 14.8247 26.8521 14.8247ZM31.9178 14.8821C31.2876 14.8821 30.8197 15.7296 30.8197 15.7296L30.945 14.9517H29.6364L28.7577 20.322H30.2037C30.6133 18.0287 30.6881 16.1666 31.6655 16.5075C31.8365 15.6199 32.0025 15.2769 32.1893 14.9013C32.1893 14.9013 32.1016 14.8821 31.9178 14.8821ZM43.6344 14.8821C43.0043 14.8821 42.5364 15.7296 42.5364 15.7296L42.6617 14.9517H41.3531L40.4743 20.322H41.9187C42.3284 18.0287 42.4051 16.1666 43.3821 16.5075C43.5535 15.6199 43.7194 15.2769 43.906 14.9013C43.906 14.9013 43.8182 14.8821 43.6344 14.8821ZM26.8451 16.0359C27.6396 16.0359 27.4943 16.9327 27.4943 17.0052H25.9298C25.9298 16.9126 26.0778 16.0359 26.8451 16.0359ZM45.7488 16.1403C46.2545 16.1401 46.5145 16.4817 46.5145 17.2853C46.5145 18.0145 46.1468 18.989 45.3851 18.989C44.8796 18.989 44.642 18.5715 44.642 17.917C44.642 16.8468 45.1317 16.1403 45.7488 16.1403ZM38.8002 17.9675C39.0065 17.9677 39.0492 17.9878 39.0839 17.9971C39.0789 17.9963 39.0779 17.9972 39.0978 18.0005C39.1239 18.2397 38.9533 19.3614 38.1285 19.3614C37.7032 19.3614 37.5943 19.0232 37.5943 18.8236C37.5943 18.4345 37.7969 17.9675 38.8002 17.9675ZM16.3083 17.9727C16.5426 17.973 16.5682 17.9991 16.6077 18.0058C16.6338 18.2448 16.4625 19.3648 15.6349 19.3648C15.2079 19.3648 15.0972 19.0283 15.0972 18.8289C15.0972 18.44 15.301 17.9727 16.3083 17.9727Z" fill="white"/>
</svg>
