<svg width="56" height="35" viewBox="0 0 56 35" fill="none" xmlns="http://www.w3.org/2000/svg">
<path d="M2.22744 0C0.997504 0 0 0.997226 0 2.22744V32.7434C0 33.9736 0.998005 34.9708 2.22744 34.9708H53.4586C54.6885 34.9708 55.686 33.9736 55.686 32.7434V2.22744C55.686 0.997281 54.688 0 53.4586 0H2.22744ZM33.2585 10.422C34.6138 10.422 35.6999 10.7213 36.3926 10.9997L35.9192 13.9772L35.606 13.8188C34.9608 13.5405 34.132 13.2725 32.9887 13.2915C31.6202 13.2915 30.9876 13.902 30.9876 14.4732C30.9796 15.1168 31.7268 15.5412 32.9487 16.1768C34.9655 17.1574 35.8976 18.3464 35.8845 19.9095C35.8573 22.7616 33.4719 24.6045 29.7973 24.6045C28.2295 24.5873 26.7192 24.2554 25.9027 23.8719L26.3935 20.7952L26.8442 21.0145C27.9923 21.5275 28.7357 21.735 30.1348 21.735C31.1396 21.735 32.218 21.3143 32.2266 20.3933C32.2331 19.7919 31.7758 19.3631 30.415 18.6896C29.089 18.0323 27.3311 16.9312 27.3506 14.9569C27.3713 12.2862 29.8043 10.422 33.2585 10.422ZM4.92471 10.8588H10.5682C11.3281 10.8875 11.9416 11.1322 12.1535 11.9569L13.3699 18.2355C13.3701 18.236 13.3697 18.2383 13.3699 18.2389L13.7353 20.1201L17.1617 10.8588H20.8683L15.3589 24.4149L11.6558 24.4183L8.7079 13.4795C10.4619 14.4087 11.9552 15.4838 12.82 16.9634C12.597 16.4952 12.3032 15.9667 11.9273 15.4459C11.4895 14.8394 10.544 14.0563 10.1488 13.7231C8.77167 12.5622 6.90145 11.6246 4.88122 11.1285L4.92471 10.8588ZM22.3423 10.8744H25.9671L23.6996 24.4096H20.0748L22.3423 10.8744ZM42.8156 10.8744H45.5617L48.4364 24.4096H45.1405C45.1405 24.4096 44.8135 22.8547 44.7072 22.3806C44.1892 22.3806 40.566 22.3754 40.1583 22.3754C40.0204 22.7418 39.4101 24.4096 39.4101 24.4096H35.6808L40.9554 11.9986C41.3288 11.1167 41.9653 10.8744 42.8156 10.8744ZM43.0853 14.5149C42.907 15.0184 42.5964 15.8314 42.6172 15.7957C42.6172 15.7957 41.5014 18.7715 41.2095 19.5441L44.1416 19.5423C43.8692 18.2516 43.5966 16.961 43.3237 15.6705L43.0853 14.515V14.5149Z" fill="white"/>
</svg>
