<svg width="22" height="22" viewBox="0 0 22 22" fill="none" xmlns="http://www.w3.org/2000/svg">
<path d="M17.875 10.3125C17.8746 9.57449 17.6762 8.85012 17.3004 8.2149C16.9247 7.57969 16.3855 7.0569 15.7389 6.70106C16.2261 6.19288 16.4987 5.51648 16.5 4.8125H15.125C15.125 5.17717 14.9801 5.52691 14.7223 5.78477C14.4644 6.04263 14.1147 6.1875 13.75 6.1875C12.6695 6.18893 11.6327 6.61395 10.8621 7.37131C10.0915 8.12866 9.64859 9.15797 9.62844 10.2383C8.74698 9.34046 8.25217 8.13317 8.25 6.875C8.24819 6.26698 8.04473 5.67674 7.67149 5.19676C7.29825 4.71678 6.77633 4.37417 6.1875 4.22263V2.75H4.8125V4.22263C4.22367 4.37417 3.70175 4.71678 3.32851 5.19676C2.95527 5.67674 2.75181 6.26698 2.75 6.875V10.3125H1.375V11C1.375 13.5527 2.38906 16.0009 4.1941 17.8059C5.99913 19.6109 8.44729 20.625 11 20.625C13.5527 20.625 16.0009 19.6109 17.8059 17.8059C19.6109 16.0009 20.625 13.5527 20.625 11V10.3125H17.875ZM13.75 7.5625C14.4791 7.56341 15.178 7.85343 15.6935 8.36896C16.2091 8.88449 16.4991 9.58343 16.5 10.3125H11C11.0009 9.58343 11.2909 8.88449 11.8065 8.36896C12.322 7.85343 13.0209 7.56341 13.75 7.5625ZM4.125 6.875C4.125 6.51033 4.26987 6.16059 4.52773 5.90273C4.78559 5.64487 5.13533 5.5 5.5 5.5C5.86467 5.5 6.21441 5.64487 6.47227 5.90273C6.73013 6.16059 6.875 6.51033 6.875 6.875C6.87812 8.09982 7.24467 9.29617 7.92825 10.3125H4.125V6.875ZM11 19.25C8.93179 19.2473 6.93982 18.4689 5.41767 17.0687C3.89552 15.6685 2.95391 13.7483 2.77887 11.6875H19.2218C19.0468 13.7484 18.1051 15.6687 16.5828 17.0689C15.0605 18.4691 13.0683 19.2474 11 19.25Z" fill="#7A0808"/>
</svg>
