<svg width="22" height="22" viewBox="0 0 22 22" fill="none" xmlns="http://www.w3.org/2000/svg">
<path d="M11.3176 21.1035L10.4022 15.469L9.83867 20.9624L7.93696 19.9057L10.0435 12.6462L11.8104 15.5393L12.6554 19.4835L11.3176 21.1035ZM4.71374 20.9368L4.37773 19.74L3.18423 19.3523L4.38039 19.016L4.76797 17.8222L5.10441 19.0186L6.29821 19.4066L5.10179 19.7427L4.71374 20.9368ZM7.33226 18.553L6.08745 18.4567L3.33058 13.9282L3.15234 10.3657L6.5238 11.6694L8.7195 14.5898L8.0149 17.2947L5.30336 13.7264L7.33234 18.553H7.33226ZM13.5912 17.3174L12.8599 17.226L12.4943 15.3516L11.8807 14.2011L15.825 10.2569L17.1635 10.6791L16.5999 13.8486L13.5913 17.3174L13.5912 17.3174ZM14.3796 15.5173L15.5514 14.1199L15.9802 12.3615L14.8981 13.7589L14.3796 15.5173ZM9.01208 13.8671L7.35662 11.649L8.30752 6.96436L11.6181 2.88009L14.3296 6.54219L14.0482 11.0855L11.5125 13.6911L9.89259 11.2259L9.01208 13.8671ZM11.0454 11.8368L12.2132 7.77196L13.2762 6.78978L12.0718 6.95521L11.5935 5.09552L11.3117 6.95521L9.36326 7.19222L11.3015 7.88703L11.0454 11.8367L11.0454 11.8368ZM6.86673 10.9892L5.66894 9.08706L6.09175 5.07322L7.42993 7.74957L6.86669 10.9892L6.86673 10.9892ZM16.8466 10.0241L16.4225 8.51265L14.9153 8.02311L16.4257 7.59828L16.9153 6.09111L17.3401 7.60189L18.8472 8.09182L17.3368 8.51592L16.8465 10.0241L16.8466 10.0241ZM7.65555 5.81559L7.12515 3.92539L5.23985 3.31309L7.12944 2.78178L7.74162 0.896484L8.27302 2.78608L10.1579 3.39894L8.26868 3.92961L7.65555 5.81559Z" fill="#7A0808"/>
</svg>
