<svg width="24" height="24" viewBox="0 0 24 24" fill="none" xmlns="http://www.w3.org/2000/svg">
<path d="M7.00002 1.20801L5.68002 3.68101L3.20802 5.00001L5.68002 6.31901L7.00002 8.79201L8.31802 6.31901L10.791 4.99901L8.31802 3.68101L7.00002 1.20801ZM13.333 9.33301L8.33302 12L13.333 14.667L15.999 19.667L18.666 14.667L23.666 12L18.666 9.33301L15.999 4.33301L13.333 9.33301ZM12.583 12L14.81 10.812L15.999 8.58301L17.188 10.812L19.416 12L17.188 13.188L15.999 15.417L14.811 13.188L12.583 12ZM4.33302 16.333L5.99902 13.208L7.66602 16.333L10.791 18L7.66602 19.667L5.99902 22.792L4.33302 19.667L1.20802 18L4.33302 16.333Z" fill="#5A0E0E"/>
</svg>
