<svg width="24" height="24" viewBox="0 0 24 24" fill="none" xmlns="http://www.w3.org/2000/svg">
<path d="M17 1.20801L18.32 3.68101L20.792 5.00001L18.32 6.31901L17 8.79201L15.682 6.31901L13.209 4.99901L15.682 3.68101L17 1.20801ZM10.667 9.33301L15.667 12L10.667 14.667L8.00098 19.667L5.33398 14.667L0.333984 12L5.33398 9.33301L8.00098 4.33301L10.667 9.33301ZM11.417 12L9.18998 10.812L8.00098 8.58301L6.81198 10.812L4.58398 12L6.81198 13.188L8.00098 15.417L9.18898 13.188L11.417 12ZM19.667 16.333L18.001 13.208L16.334 16.333L13.209 18L16.334 19.667L18.001 22.792L19.667 19.667L22.792 18L19.667 16.333Z" fill="#5A0E0E"/>
</svg>
