<svg width="22" height="22" viewBox="0 0 22 22" fill="none" xmlns="http://www.w3.org/2000/svg">
<g clip-path="url(#clip0_36_431)">
<path d="M17.6509 5.46975C16.5055 4.31922 15.1312 3.82113 13.6984 3.82113C13.575 3.82113 13.4506 3.82663 13.3272 3.83419C12.9711 2.23163 12.4764 0.6875 12.4764 0.6875C12.4764 0.6875 10.3139 2.05941 9.04922 3.33987C7.58656 2.19622 5.90425 1.14297 5.90425 1.14297C5.90425 1.14297 5.54537 3.77128 5.67119 5.69663C3.75409 5.57253 1.13781 5.9345 1.13781 5.9345C1.13781 5.9345 2.18659 7.623 3.32681 9.09184C2.05219 10.3627 0.6875 12.5366 0.6875 12.5366C0.6875 12.5366 2.28456 13.0512 3.91256 13.409C3.85791 14.9287 4.34603 16.3931 5.55431 17.6072C8.11216 20.1754 12.5448 21.3125 15.9407 21.3125C17.9101 21.3122 19.5312 20.9299 20.2348 20.2228C22.133 18.3153 21.6731 9.51122 17.6509 5.46975ZM19.7388 19.7292C19.3139 20.1561 18.0926 20.6126 15.9407 20.613C12.7524 20.613 8.45728 19.5312 6.05069 17.1136C3.28075 14.3306 4.89466 10.1757 7.56662 7.49306C9.41909 5.63234 11.7112 4.521 13.6984 4.521C15.0391 4.52134 16.202 5.00603 17.1548 5.96406C18.842 7.65875 20.0506 10.4919 20.4696 13.7362C20.8639 16.7925 20.4009 19.064 19.7388 19.7292Z" fill="#7A0808"/>
<path d="M13.8089 6.29779C14.0076 6.43633 14.2265 6.50611 14.4177 6.50645C14.6036 6.50645 14.7635 6.44114 14.8546 6.30948C15.0419 6.04308 14.8762 5.60411 14.4861 5.33048C14.2867 5.19126 14.0684 5.12183 13.8766 5.12183C13.6913 5.12183 13.5308 5.18714 13.439 5.31845C13.2524 5.5852 13.4174 6.02451 13.8089 6.29779ZM15.1502 11.2505C15.0386 11.2478 14.9297 11.2856 14.8439 11.3571C14.5981 11.5706 14.6524 12.0364 14.9649 12.397C15.1725 12.6359 15.4424 12.7685 15.672 12.7682C15.7889 12.7685 15.8954 12.7342 15.9783 12.662C16.2248 12.4485 16.1698 11.9831 15.8573 11.6225C15.6497 11.3832 15.3805 11.2509 15.1502 11.2505ZM12.1317 8.22658C12.0237 8.22337 11.9181 8.25925 11.8344 8.32764C11.5845 8.53698 11.6309 9.00414 11.9385 9.36954C12.1455 9.61533 12.4167 9.75248 12.648 9.75283C12.7615 9.75283 12.8643 9.71948 12.9461 9.65142C13.196 9.44173 13.1489 8.97561 12.8419 8.60883C12.6353 8.36339 12.3634 8.22623 12.1317 8.22658ZM18.0136 9.09867C17.8356 8.77383 17.543 8.57273 17.288 8.57273C17.2156 8.57214 17.1442 8.58962 17.0803 8.62361C16.7944 8.78036 16.7479 9.24683 16.9769 9.66586C17.1556 9.9907 17.4468 10.1915 17.7025 10.1915C17.7758 10.1915 17.8462 10.1753 17.9102 10.1406C18.1965 9.98417 18.2426 9.5177 18.0136 9.09867ZM18.8905 13.1975C18.8555 13.1975 18.8208 13.2024 18.7864 13.211C18.4708 13.2935 18.3124 13.7338 18.4334 14.1961C18.5409 14.608 18.8328 14.8964 19.1188 14.8967C19.1539 14.8967 19.1886 14.8922 19.2229 14.8836C19.5385 14.8015 19.697 14.3601 19.576 13.8978C19.4687 13.4866 19.1759 13.1975 18.8905 13.1975ZM18.4798 17.5384C18.3581 17.5388 18.2481 17.5745 18.1642 17.6508C17.9225 17.8695 17.9861 18.3339 18.3065 18.6886C18.5152 18.9193 18.7812 19.0454 19.0081 19.0458C19.1298 19.0454 19.2405 19.0093 19.325 18.9327C19.566 18.714 19.5024 18.2496 19.1813 17.8956C18.973 17.6656 18.7073 17.5384 18.4798 17.5384ZM11.317 17.2019C11.1214 17.0699 10.9083 17.0049 10.7203 17.0053C10.5281 17.0053 10.3624 17.0733 10.2703 17.2108C10.0892 17.4817 10.2634 17.9169 10.6605 18.1819C10.8564 18.3136 11.0699 18.3789 11.2572 18.3789C11.4501 18.3789 11.6154 18.3101 11.7072 18.1726C11.8887 17.9025 11.7141 17.4669 11.317 17.2019ZM7.27523 16.0472C7.07963 15.9159 6.86651 15.851 6.67882 15.851C6.48598 15.851 6.32063 15.9194 6.22885 16.0562C6.04769 16.3267 6.22197 16.7626 6.61866 17.0273C6.8146 17.1586 7.02807 17.2246 7.2161 17.2242C7.40826 17.2242 7.57394 17.1558 7.66538 17.018C7.84619 16.7478 7.67226 16.3126 7.27523 16.0472ZM14.6253 18.7763C14.4862 18.7189 14.3374 18.6887 14.187 18.6872C13.913 18.6869 13.6841 18.7993 13.6023 19C13.4806 19.3015 13.7412 19.692 14.1836 19.8701C14.3328 19.9302 14.483 19.9588 14.6219 19.9584C14.8958 19.9584 15.1254 19.847 15.2059 19.6463C15.3283 19.3445 15.0684 18.9547 14.6253 18.7763ZM15.5249 15.3642C15.3382 15.2532 15.1402 15.1989 14.9635 15.1989C14.7514 15.1985 14.5706 15.2776 14.4802 15.4299C14.3132 15.7097 14.5112 16.1356 14.9213 16.3796C15.1079 16.4903 15.3059 16.5446 15.4833 16.5446C15.6947 16.5446 15.8755 16.4659 15.9659 16.3136C16.1326 16.0331 15.935 15.6076 15.5249 15.3642ZM11.8825 12.9775C11.6756 12.8057 11.4374 12.717 11.2311 12.7173C11.0713 12.717 10.931 12.7706 10.8399 12.8803C10.6323 13.1309 10.7612 13.5822 11.1283 13.8868C11.3356 14.058 11.5742 14.1473 11.7804 14.1473C11.9403 14.1473 12.0798 14.0937 12.1713 13.984C12.3789 13.7331 12.2507 13.2818 11.8825 12.9775ZM8.20404 7.98286C8.07169 7.9832 7.9531 8.02376 7.86648 8.10936C7.6341 8.33795 7.71729 8.79961 8.05176 9.13958C8.26179 9.35201 8.52063 9.46717 8.74235 9.46751C8.87435 9.46717 8.99294 9.42661 9.07957 9.34101C9.31194 9.11208 9.2291 8.65076 8.89429 8.31114C8.68391 8.09767 8.42541 7.9832 8.20404 7.98286ZM7.84138 12.0223C7.63582 11.8597 7.4031 11.7761 7.20097 11.7765C7.0346 11.7765 6.88851 11.8325 6.79707 11.9484C6.5946 12.2031 6.73382 12.6517 7.10782 12.9473C7.31338 13.1102 7.54644 13.1931 7.74857 13.1931C7.91494 13.1931 8.06069 13.1377 8.15213 13.0215C8.35391 12.7665 8.21538 12.3186 7.84138 12.0223Z" fill="#7A0808"/>
</g>
<defs>
<clipPath id="clip0_36_431">
<rect width="22" height="22" fill="white"/>
</clipPath>
</defs>
</svg>
