<svg width="20" height="18" viewBox="0 0 20 18" fill="none" xmlns="http://www.w3.org/2000/svg">
<path fill-rule="evenodd" clip-rule="evenodd" d="M5.26321 16.2204C5.26321 15.4269 5.89478 14.7836 6.67386 14.7836C7.45294 14.7836 8.08451 15.4269 8.08451 16.2204C8.08451 17.014 7.45294 17.6573 6.67386 17.6573C5.89478 17.6573 5.26321 17.014 5.26321 16.2204Z" fill="#878787"/>
<path fill-rule="evenodd" clip-rule="evenodd" d="M15.1378 16.2204C15.1378 15.4269 15.7693 14.7836 16.5484 14.7836C17.3275 14.7836 17.9591 15.4269 17.9591 16.2204C17.9591 17.014 17.3275 17.6573 16.5484 17.6573C15.7693 17.6573 15.1378 17.014 15.1378 16.2204Z" fill="#878787"/>
<path fill-rule="evenodd" clip-rule="evenodd" d="M0.325928 1.13347C0.325928 0.73669 0.641713 0.415039 1.03125 0.415039H3.85256C4.19481 0.415039 4.48767 0.665308 4.54715 1.00861L6.56029 12.6283H17.2537C17.6433 12.6283 17.9591 12.9499 17.9591 13.3467C17.9591 13.7435 17.6433 14.0651 17.2537 14.0651H5.96853C5.62628 14.0651 5.33342 13.8149 5.27394 13.4716L3.2608 1.85189H1.03125C0.641713 1.85189 0.325928 1.53024 0.325928 1.13347Z" fill="#878787"/>
<path fill-rule="evenodd" clip-rule="evenodd" d="M18.2342 2.57032C18.3906 2.57028 18.5451 2.60558 18.6865 2.67368C18.8281 2.74185 18.9531 2.84119 19.0524 2.96451C19.1517 3.08784 19.2229 3.23209 19.2609 3.38686C19.2988 3.54159 19.3025 3.70297 19.2718 3.85935L19.2718 3.85945L18.0022 10.3253C17.9542 10.5697 17.8245 10.7895 17.6352 10.9475C17.4459 11.1054 17.2088 11.1916 16.9641 11.1914L16.9646 10.473V11.1914H16.9641H5.96853C5.57899 11.1914 5.26321 10.8698 5.26321 10.473C5.26321 10.0762 5.57899 9.75458 5.96853 9.75458H16.6757L16.619 10.0433L16.619 10.0434L16.9648 10.1138L16.9649 10.1139L17.3106 10.1843L16.9648 10.1138L16.9646 10.1137L16.619 10.0433C16.635 9.96183 16.6782 9.88855 16.7413 9.83591C16.8043 9.78337 16.8832 9.75464 16.9646 9.75458H16.6757L17.8042 4.00717H18.2342C18.1821 4.00713 18.1307 3.99537 18.0837 3.97272C18.0365 3.94999 17.9948 3.91688 17.9617 3.87577C17.9286 3.83467 17.9049 3.78658 17.8922 3.73499C17.8796 3.6835 17.8784 3.62981 17.8885 3.57777L17.8042 4.00717H4.55788C4.16834 4.00717 3.85256 3.68552 3.85256 3.28875C3.85256 2.89197 4.16834 2.57032 4.55788 2.57032H18.234C18.2339 2.57032 18.2338 2.57032 18.2337 2.57032L18.2342 3.28875V2.57032Z" fill="#878787"/>
</svg>
