<svg width="20" height="20" viewBox="0 0 20 20" fill="none" xmlns="http://www.w3.org/2000/svg">
<path d="M10 3.33334C10.8841 3.33334 11.7319 3.68453 12.3571 4.30965C12.9822 4.93477 13.3334 5.78261 13.3334 6.66667C13.3334 7.55072 12.9822 8.39857 12.3571 9.02369C11.7319 9.64881 10.8841 10 10 10C9.11599 10 8.26814 9.64881 7.64302 9.02369C7.0179 8.39857 6.66671 7.55072 6.66671 6.66667C6.66671 5.78261 7.0179 4.93477 7.64302 4.30965C8.26814 3.68453 9.11599 3.33334 10 3.33334ZM10 11.6667C13.6834 11.6667 16.6667 13.1583 16.6667 15V16.6667H3.33337V15C3.33337 13.1583 6.31671 11.6667 10 11.6667Z" fill="white"/>
</svg>
