<svg width="20" height="20" viewBox="0 0 20 20" fill="none" xmlns="http://www.w3.org/2000/svg">
<path d="M14.1666 15C13.2416 15 12.4999 15.7417 12.4999 16.6667C12.4999 17.1087 12.6755 17.5326 12.9881 17.8452C13.3006 18.1577 13.7246 18.3333 14.1666 18.3333C14.6086 18.3333 15.0325 18.1577 15.3451 17.8452C15.6577 17.5326 15.8332 17.1087 15.8332 16.6667C15.8332 16.2246 15.6577 15.8007 15.3451 15.4882C15.0325 15.1756 14.6086 15 14.1666 15ZM0.833252 1.66666V3.33333H2.49992L5.49992 9.65833L4.36658 11.7C4.24158 11.9333 4.16658 12.2083 4.16658 12.5C4.16658 12.942 4.34218 13.3659 4.65474 13.6785C4.9673 13.9911 5.39122 14.1667 5.83325 14.1667H15.8332V12.5H6.18325C6.128 12.5 6.07501 12.478 6.03594 12.439C5.99687 12.3999 5.97492 12.3469 5.97492 12.2917C5.97492 12.25 5.98325 12.2167 5.99992 12.1917L6.74992 10.8333H12.9583C13.5832 10.8333 14.1332 10.4833 14.4166 9.975L17.3999 4.58333C17.4582 4.45 17.4999 4.30833 17.4999 4.16666C17.4999 3.94565 17.4121 3.73369 17.2558 3.57741C17.0996 3.42113 16.8876 3.33333 16.6666 3.33333H4.34158L3.55825 1.66666M5.83325 15C4.90825 15 4.16658 15.7417 4.16658 16.6667C4.16658 17.1087 4.34218 17.5326 4.65474 17.8452C4.9673 18.1577 5.39122 18.3333 5.83325 18.3333C6.27528 18.3333 6.6992 18.1577 7.01176 17.8452C7.32432 17.5326 7.49992 17.1087 7.49992 16.6667C7.49992 16.2246 7.32432 15.8007 7.01176 15.4882C6.6992 15.1756 6.27528 15 5.83325 15Z" fill="white"/>
</svg>
