<svg width="20" height="20" viewBox="0 0 20 20" fill="none" xmlns="http://www.w3.org/2000/svg">
<g clip-path="url(#clip0_48_249)">
<path fill-rule="evenodd" clip-rule="evenodd" d="M8.74997 1.66666C7.62046 1.66676 6.50735 1.93697 5.50351 2.45474C4.49967 2.97252 3.63421 3.72285 2.97933 4.64313C2.32445 5.56341 1.89914 6.62695 1.73889 7.74503C1.57864 8.86311 1.68809 10.0033 2.05812 11.0705C2.42814 12.1377 3.04801 13.1009 3.866 13.8798C4.68399 14.6587 5.67639 15.2306 6.7604 15.548C7.8444 15.8654 8.98859 15.9189 10.0975 15.7041C11.2064 15.4893 12.2478 15.0125 13.135 14.3133L16.1783 17.3567C16.3355 17.5085 16.546 17.5925 16.7645 17.5906C16.983 17.5887 17.192 17.501 17.3465 17.3465C17.501 17.192 17.5886 16.983 17.5905 16.7645C17.5924 16.546 17.5084 16.3355 17.3566 16.1783L14.3133 13.135C15.1366 12.0905 15.6493 10.8353 15.7925 9.5131C15.9358 8.19087 15.704 6.85501 15.1235 5.65841C14.543 4.4618 13.6374 3.45279 12.5102 2.74686C11.3831 2.04092 10.0799 1.66657 8.74997 1.66666ZM3.3333 8.75C3.3333 7.31341 3.90398 5.93566 4.91981 4.91984C5.93563 3.90401 7.31338 3.33333 8.74997 3.33333C10.1866 3.33333 11.5643 3.90401 12.5801 4.91984C13.596 5.93566 14.1666 7.31341 14.1666 8.75C14.1666 10.1866 13.596 11.5643 12.5801 12.5802C11.5643 13.596 10.1866 14.1667 8.74997 14.1667C7.31338 14.1667 5.93563 13.596 4.91981 12.5802C3.90398 11.5643 3.3333 10.1866 3.3333 8.75Z" fill="white"/>
</g>
<defs>
<clipPath id="clip0_48_249">
<rect width="20" height="20" fill="white"/>
</clipPath>
</defs>
</svg>
